<svg xmlns="http://www.w3.org/2000/svg" width="100" height="100" viewBox="0 0 100 100">
  <g transform="translate(0,100) scale(0.1,-0.1)" fill="#000000">
    <path d="M0 500 l0 -500 500 0 500 0 0 500 0 500 -500 0 -500 0 0 -500z m625
    288 c34 -15 55 -56 55 -108 0 -79 -52 -136 -136 -148 l-45 -7 26 -35 c15 -19
    56 -75 91 -125 61 -84 64 -90 42 -94 -14 -2 -27 4 -33 14 -5 9 -49 73 -97 142
    -49 68 -88 126 -88 129 0 3 15 2 33 -1 110 -21 204 79 162 169 -20 43 -58 56
    -156 56 l-66 0 -6 -157 c-4 -87 -7 -202 -7 -255 0 -95 -1 -98 -22 -98 -23 0
    -23 1 -16 112 3 62 7 182 7 266 l1 152 115 0 c67 0 125 -5 140 -12z"/>
  </g>
</svg>
